{"Protocol":0,"Id":"f540d261f187196f888b7130c1eed50b","Path":"/media/ram/2014 X-ART/[X-Art] 2014-06-13 - Misty - Enjoy My Backdoor [mp4][1920x1080]/x-art_misty_enjoy_my_backdoor_1080.mp4","EncoderPath":null,"EncoderProtocol":null,"Type":0,"Container":"mov,mp4,m4a,3gp,3g2,mj2","Size":1284993169,"Name":"x-art_misty_enjoy_my_backdoor_1080","IsRemote":false,"ETag":"a6d68d80804c29d2c52cd892b85cb16d","RunTimeTicks":12014930000,"ReadAtNativeFramerate":false,"IgnoreDts":false,"IgnoreIndex":false,"GenPtsInput":false,"SupportsTranscoding":true,"SupportsDirectStream":true,"SupportsDirectPlay":true,"IsInfiniteStream":false,"UseMostCompatibleTranscodingProfile":false,"RequiresOpening":false,"OpenToken":null,"RequiresClosing":false,"LiveStreamId":null,"BufferMs":null,"RequiresLooping":false,"SupportsProbing":true,"VideoType":0,"IsoType":null,"Video3DFormat":null,"MediaStreams":[{"Codec":"mpeg4","CodecTag":"mp4v","Language":"eng","ColorRange":null,"ColorSpace":null,"ColorTransfer":null,"ColorPrimaries":null,"DvVersionMajor":null,"DvVersionMinor":null,"DvProfile":null,"DvLevel":null,"RpuPresentFlag":null,"ElPresentFlag":null,"BlPresentFlag":null,"DvBlSignalCompatibilityId":null,"Rotation":null,"Comment":null,"TimeBase":"1/12800","CodecTimeBase":null,"Title":null,"VideoRange":1,"VideoRangeType":1,"VideoDoViTitle":null,"AudioSpatialFormat":0,"LocalizedUndefined":null,"LocalizedDefault":null,"LocalizedForced":null,"LocalizedExternal":null,"LocalizedHearingImpaired":null,"DisplayTitle":"1080p MPEG4 SDR","NalLengthSize":null,"IsInterlaced":false,"IsAVC":false,"ChannelLayout":null,"BitRate":8423922,"BitDepth":8,"RefFrames":1,"PacketLength":null,"Channels":null,"SampleRate":null,"IsDefault":true,"IsForced":false,"IsHearingImpaired":false,"Height":1080,"Width":1920,"AverageFrameRate":25,"RealFrameRate":25,"ReferenceFrameRate":25,"Profile":"Simple Profile","Type":1,"AspectRatio":"16:9","Index":0,"Score":null,"IsExternal":false,"DeliveryMethod":null,"DeliveryUrl":null,"IsExternalUrl":null,"IsTextSubtitleStream":false,"SupportsExternalStream":false,"Path":null,"PixelFormat":"yuv420p","Level":1,"IsAnamorphic":false},{"Codec":"aac","CodecTag":"mp4a","Language":"eng","ColorRange":null,"ColorSpace":null,"ColorTransfer":null,"ColorPrimaries":null,"DvVersionMajor":null,"DvVersionMinor":null,"DvProfile":null,"DvLevel":null,"RpuPresentFlag":null,"ElPresentFlag":null,"BlPresentFlag":null,"DvBlSignalCompatibilityId":null,"Rotation":null,"Comment":null,"TimeBase":"1/48000","CodecTimeBase":null,"Title":null,"VideoRange":0,"VideoRangeType":0,"VideoDoViTitle":null,"AudioSpatialFormat":0,"LocalizedUndefined":null,"LocalizedDefault":"Default","LocalizedForced":null,"LocalizedExternal":"External","LocalizedHearingImpaired":null,"DisplayTitle":"English - AAC - Stereo - Default","NalLengthSize":null,"IsInterlaced":false,"IsAVC":false,"ChannelLayout":"stereo","BitRate":127566,"BitDepth":null,"RefFrames":null,"PacketLength":null,"Channels":2,"SampleRate":48000,"IsDefault":true,"IsForced":false,"IsHearingImpaired":false,"Height":null,"Width":null,"AverageFrameRate":null,"RealFrameRate":null,"ReferenceFrameRate":null,"Profile":"LC","Type":0,"AspectRatio":null,"Index":1,"Score":null,"IsExternal":false,"DeliveryMethod":null,"DeliveryUrl":null,"IsExternalUrl":null,"IsTextSubtitleStream":false,"SupportsExternalStream":false,"Path":null,"PixelFormat":null,"Level":0,"IsAnamorphic":null}],"MediaAttachments":[],"Formats":[],"Bitrate":8555976,"FallbackMaxStreamingBitrate":null,"Timestamp":null,"RequiredHttpHeaders":{},"TranscodingUrl":null,"TranscodingSubProtocol":0,"TranscodingContainer":null,"AnalyzeDurationMs":null,"DefaultAudioStreamIndex":null,"DefaultSubtitleStreamIndex":null,"HasSegments":false}

/usr/lib/jellyfin-ffmpeg/ffmpeg -analyzeduration 200M -probesize 1G  -i file:"/media/ram/2014 X-ART/[X-Art] 2014-06-13 - Misty - Enjoy My Backdoor [mp4][1920x1080]/x-art_misty_enjoy_my_backdoor_1080.mp4" -map_metadata -1 -map_chapters -1 -threads 0 -map 0:0 -map 0:1 -map -0:s -codec:v:0 libx264 -preset veryfast -crf 23 -maxrate 8423922 -bufsize 16847844 -profile:v:0 high -level 51 -x264opts:0 subme=0:me_range=16:rc_lookahead=10:me=hex:open_gop=0 -force_key_frames:0 "expr:gte(t,n_forced*3)" -sc_threshold:v:0 0 -vf "setparams=color_primaries=bt709:color_trc=bt709:colorspace=bt709,scale=trunc(min(max(iw\,ih*a)\,min(1920\,1080*a))/2)*2:trunc(min(max(iw/a\,ih)\,min(1920/a\,1080))/2)*2,format=yuv420p" -codec:a:0 copy -copyts -avoid_negative_ts disabled -max_muxing_queue_size 2048 -f hls -max_delay 5000000 -hls_time 3 -hls_segment_type fmp4 -hls_fmp4_init_filename "1a9e21255d217d232cb0ee77bf70bdf1-1.mp4" -start_number 0 -hls_segment_filename "/cache/transcodes/1a9e21255d217d232cb0ee77bf70bdf1%d.mp4" -hls_playlist_type vod -hls_list_size 0 -y "/cache/transcodes/1a9e21255d217d232cb0ee77bf70bdf1.m3u8"


ffmpeg version 7.0.2-Jellyfin Copyright (c) 2000-2024 the FFmpeg developers
  built with gcc 12 (Debian 12.2.0-14)
  configuration: --prefix=/usr/lib/jellyfin-ffmpeg --target-os=linux --extra-version=Jellyfin --disable-doc --disable-ffplay --disable-ptx-compression --disable-static --disable-libxcb --disable-sdl2 --disable-xlib --enable-lto=auto --enable-gpl --enable-version3 --enable-shared --enable-gmp --enable-gnutls --enable-chromaprint --enable-opencl --enable-libdrm --enable-libxml2 --enable-libass --enable-libfreetype --enable-libfribidi --enable-libfontconfig --enable-libharfbuzz --enable-libbluray --enable-libmp3lame --enable-libopus --enable-libtheora --enable-libvorbis --enable-libopenmpt --enable-libdav1d --enable-libsvtav1 --enable-libwebp --enable-libvpx --enable-libx264 --enable-libx265 --enable-libzvbi --enable-libzimg --enable-libfdk-aac --arch=arm64 --cross-prefix=/usr/bin/aarch64-linux-gnu- --toolchain=hardened --enable-cross-compile --enable-rkmpp --enable-rkrga
  libavutil      59.  8.100 / 59.  8.100
  libavcodec     61.  3.100 / 61.  3.100
  libavformat    61.  1.100 / 61.  1.100
  libavdevice    61.  1.100 / 61.  1.100
  libavfilter    10.  1.100 / 10.  1.100
  libswscale      8.  1.100 /  8.  1.100
  libswresample   5.  1.100 /  5.  1.100
  libpostproc    58.  1.100 / 58.  1.100
Input #0, mov,mp4,m4a,3gp,3g2,mj2, from 'file:/media/ram/2014 X-ART/[X-Art] 2014-06-13 - Misty - Enjoy My Backdoor [mp4][1920x1080]/x-art_misty_enjoy_my_backdoor_1080.mp4':
  Metadata:
    major_brand     : isom
    minor_version   : 512
    compatible_brands: isomiso2mp41
    encoder         : Lavf55.33.101
  Duration: 00:20:01.49, start: 0.000000, bitrate: 8555 kb/s
  Stream #0:0[0x1](eng): Video: mpeg4 (Simple Profile) (mp4v / 0x7634706D), yuv420p, 1920x1080 [SAR 1:1 DAR 16:9], 8423 kb/s, 25 fps, 25 tbr, 12800 tbn (default)
      Metadata:
        handler_name    : VideoHandler
        vendor_id       : [0][0][0][0]
  Stream #0:1[0x2](eng): Audio: aac (LC) (mp4a / 0x6134706D), 48000 Hz, stereo, fltp, 127 kb/s (default)
      Metadata:
        handler_name    : SoundHandler
        vendor_id       : [0][0][0][0]
Stream mapping:
  Stream #0:0 -> #0:0 (mpeg4 (native) -> h264 (libx264))
  Stream #0:1 -> #0:1 (copy)
Press [q] to stop, [?] for help
[libx264 @ 0xaaaad521bc50] using SAR=1/1
[libx264 @ 0xaaaad521bc50] using cpu capabilities: ARMv8 NEON
[libx264 @ 0xaaaad521bc50] profile High, level 5.1, 4:2:0, 8-bit
[libx264 @ 0xaaaad521bc50] 264 - core 164 r3095 baee400 - H.264/MPEG-4 AVC codec - Copyleft 2003-2022 - http://www.videolan.org/x264.html - options: cabac=1 ref=1 deblock=1:0:0 analyse=0x3:0x113 me=hex subme=0 psy=1 psy_rd=1.00:0.00 mixed_ref=0 me_range=16 chroma_me=1 trellis=0 8x8dct=1 cqm=0 deadzone=21,11 fast_pskip=1 chroma_qp_offset=0 threads=6 lookahead_threads=1 sliced_threads=0 nr=0 decimate=1 interlaced=0 bluray_compat=0 constrained_intra=0 bframes=3 b_pyramid=2 b_adapt=1 b_bias=0 direct=1 weightb=1 open_gop=0 weightp=1 keyint=250 keyint_min=25 scenecut=0 intra_refresh=0 rc_lookahead=10 rc=crf mbtree=1 crf=23.0 qcomp=0.60 qpmin=0 qpmax=69 qpstep=4 vbv_maxrate=8423 vbv_bufsize=16847 crf_max=0.0 nal_hrd=none filler=0 ip_ratio=1.40 aq=1:1.00
[hls @ 0xaaaad5244fd0] Opening '/cache/transcodes/1a9e21255d217d232cb0ee77bf70bdf1-1.mp4' for writing
Output #0, hls, to '/cache/transcodes/1a9e21255d217d232cb0ee77bf70bdf1.m3u8':
  Metadata:
    encoder         : Lavf61.1.100
  Stream #0:0: Video: h264, yuv420p(bt709, progressive), 1920x1080 [SAR 1:1 DAR 16:9], q=2-31, 25 fps, 12800 tbn (default)
      Metadata:
        encoder         : Lavc61.3.100 libx264
      Side data:
        cpb: bitrate max/min/avg: 8423000/0/0 buffer size: 16847000 vbv_delay: N/A
  Stream #0:1: Audio: aac (LC) (mp4a / 0x6134706D), 48000 Hz, stereo, fltp, 127 kb/s (default)
frame=    0 fps=0.0 q=0.0 size=N/A time=N/A bitrate=N/A speed=N/A    
frame=   39 fps= 39 q=28.0 size=N/A time=00:00:00.00 bitrate=N/A speed=   0x    
[hls @ 0xaaaad5244fd0] Opening '/cache/transcodes/1a9e21255d217d232cb0ee77bf70bdf10.mp4' for writing
frame=   80 fps= 53 q=28.0 size=N/A time=00:00:01.64 bitrate=N/A speed=1.09x    
frame=  110 fps= 54 q=28.0 size=N/A time=00:00:02.84 bitrate=N/A speed= 1.4x    
frame=  136 fps= 54 q=28.0 size=N/A time=00:00:03.88 bitrate=N/A speed=1.54x    
[hls @ 0xaaaad5244fd0] Opening '/cache/transcodes/1a9e21255d217d232cb0ee77bf70bdf11.mp4' for writing
frame=  153 fps= 51 q=28.0 size=N/A time=00:00:04.56 bitrate=N/A speed=1.51x    
frame=  166 fps= 47 q=28.0 size=N/A time=00:00:05.08 bitrate=N/A speed=1.44x    
frame=  183 fps= 45 q=28.0 size=N/A time=00:00:05.76 bitrate=N/A speed=1.43x    
frame=  193 fps= 43 q=28.0 size=N/A time=00:00:06.16 bitrate=N/A speed=1.36x    
frame=  203 fps= 40 q=28.0 size=N/A time=00:00:06.56 bitrate=N/A speed= 1.3x    
frame=  217 fps= 39 q=28.0 size=N/A time=00:00:07.12 bitrate=N/A speed=1.29x    
[hls @ 0xaaaad5244fd0] Opening '/cache/transcodes/1a9e21255d217d232cb0ee77bf70bdf12.mp4' for writing
frame=  227 fps= 38 q=28.0 size=N/A time=00:00:07.52 bitrate=N/A speed=1.25x    
frame=  243 fps= 37 q=28.0 size=N/A time=00:00:08.16 bitrate=N/A speed=1.25x    
frame=  254 fps= 36 q=28.0 size=N/A time=00:00:08.60 bitrate=N/A speed=1.22x    
frame=  267 fps= 35 q=28.0 size=N/A time=00:00:09.12 bitrate=N/A speed=1.21x    
frame=  281 fps= 35 q=28.0 size=N/A time=00:00:09.68 bitrate=N/A speed= 1.2x    
frame=  298 fps= 35 q=28.0 size=N/A time=00:00:10.36 bitrate=N/A speed=1.21x    
[hls @ 0xaaaad5244fd0] Opening '/cache/transcodes/1a9e21255d217d232cb0ee77bf70bdf13.mp4' for writing
frame=  311 fps= 34 q=28.0 size=N/A time=00:00:10.88 bitrate=N/A speed= 1.2x    
frame=  323 fps= 34 q=28.0 size=N/A time=00:00:11.36 bitrate=N/A speed=1.19x    
frame=  344 fps= 34 q=28.0 size=N/A time=00:00:12.24 bitrate=N/A speed=1.21x    
frame=  362 fps= 34 q=28.0 size=N/A time=00:00:12.92 bitrate=N/A speed=1.22x    
[hls @ 0xaaaad5244fd0] Opening '/cache/transcodes/1a9e21255d217d232cb0ee77bf70bdf14.mp4' for writing
frame=  376 fps= 34 q=28.0 size=N/A time=00:00:13.52 bitrate=N/A speed=1.22x    
frame=  384 fps= 33 q=28.0 size=N/A time=00:00:13.80 bitrate=N/A speed=1.19x    
frame=  391 fps= 32 q=28.0 size=N/A time=00:00:14.08 bitrate=N/A speed=1.17x    
frame=  405 fps= 32 q=28.0 size=N/A time=00:00:14.64 bitrate=N/A speed=1.16x    
frame=  416 fps= 32 q=28.0 size=N/A time=00:00:15.08 bitrate=N/A speed=1.15x    
frame=  427 fps= 31 q=28.0 size=N/A time=00:00:15.56 bitrate=N/A speed=1.15x    
frame=  441 fps= 31 q=28.0 size=N/A time=00:00:16.08 bitrate=N/A speed=1.14x    
[hls @ 0xaaaad5244fd0] Opening '/cache/transcodes/1a9e21255d217d232cb0ee77bf70bdf15.mp4' for writing
frame=  451 fps= 31 q=28.0 size=N/A time=00:00:16.48 bitrate=N/A speed=1.13x    
frame=  460 fps= 30 q=28.0 size=N/A time=00:00:16.84 bitrate=N/A speed=1.12x    
frame=  471 fps= 30 q=28.0 size=N/A time=00:00:17.28 bitrate=N/A speed=1.11x    
frame=  483 fps= 30 q=28.0 size=N/A time=00:00:17.76 bitrate=N/A speed= 1.1x    
frame=  495 fps= 30 q=28.0 size=N/A time=00:00:18.24 bitrate=N/A speed= 1.1x    
frame=  507 fps= 30 q=28.0 size=N/A time=00:00:18.72 bitrate=N/A speed= 1.1x    
frame=  519 fps= 30 q=28.0 size=N/A time=00:00:19.20 bitrate=N/A speed=1.09x    
[hls @ 0xaaaad5244fd0] Opening '/cache/transcodes/1a9e21255d217d232cb0ee77bf70bdf16.mp4' for writing
frame=  526 fps= 29 q=28.0 size=N/A time=00:00:19.56 bitrate=N/A speed=1.08x    
frame=  539 fps= 29 q=28.0 size=N/A time=00:00:20.00 bitrate=N/A speed=1.08x    
frame=  558 fps= 29 q=28.0 size=N/A time=00:00:20.76 bitrate=N/A speed=1.09x    
frame=  572 fps= 29 q=28.0 size=N/A time=00:00:21.32 bitrate=N/A speed=1.09x    
frame=  583 fps= 29 q=28.0 size=N/A time=00:00:21.76 bitrate=N/A speed=1.08x    
[hls @ 0xaaaad5244fd0] Opening '/cache/transcodes/1a9e21255d217d232cb0ee77bf70bdf17.mp4' for writing
frame=  601 fps= 29 q=28.0 size=N/A time=00:00:22.56 bitrate=N/A speed= 1.1x    
frame=  648 fps= 31 q=28.0 size=N/A time=00:00:24.36 bitrate=N/A speed=1.15x    
frame=  666 fps= 31 q=28.0 size=N/A time=00:00:25.08 bitrate=N/A speed=1.16x    
[hls @ 0xaaaad5244fd0] Opening '/cache/transcodes/1a9e21255d217d232cb0ee77bf70bdf18.mp4' for writing
frame=  676 fps= 31 q=28.0 size=N/A time=00:00:25.48 bitrate=N/A speed=1.15x    
frame=  690 fps= 31 q=28.0 size=N/A time=00:00:26.04 bitrate=N/A speed=1.15x    
frame=  705 fps= 31 q=28.0 size=N/A time=00:00:26.64 bitrate=N/A speed=1.15x    
frame=  720 fps= 30 q=28.0 size=N/A time=00:00:27.24 bitrate=N/A speed=1.15x    
frame=  733 fps= 30 q=28.0 size=N/A time=00:00:27.76 bitrate=N/A speed=1.15x    
frame=  745 fps= 30 q=28.0 size=N/A time=00:00:28.24 bitrate=N/A speed=1.15x    
[hls @ 0xaaaad5244fd0] Opening '/cache/transcodes/1a9e21255d217d232cb0ee77bf70bdf19.mp4' for writing
frame=  751 fps= 30 q=28.0 size=N/A time=00:00:28.48 bitrate=N/A speed=1.13x    
frame=  764 fps= 30 q=28.0 size=N/A time=00:00:29.00 bitrate=N/A speed=1.13x    
frame=  779 fps= 30 q=28.0 size=N/A time=00:00:29.60 bitrate=N/A speed=1.13x    
frame=  789 fps= 30 q=28.0 size=N/A time=00:00:30.00 bitrate=N/A speed=1.13x    
frame=  799 fps= 29 q=28.0 size=N/A time=00:00:30.40 bitrate=N/A speed=1.12x    
frame=  807 fps= 29 q=28.0 size=N/A time=00:00:30.72 bitrate=N/A speed=1.11x    
frame=  821 fps= 29 q=25.0 size=N/A time=00:00:31.28 bitrate=N/A speed=1.11x    
[hls @ 0xaaaad5244fd0] Opening '/cache/transcodes/1a9e21255d217d232cb0ee77bf70bdf110.mp4' for writing
frame=  835 fps= 29 q=28.0 size=N/A time=00:00:31.84 bitrate=N/A speed=1.11x    
frame=  841 fps= 29 q=28.0 size=N/A time=00:00:32.08 bitrate=N/A speed= 1.1x    
frame=  850 fps= 29 q=28.0 size=N/A time=00:00:32.44 bitrate=N/A speed= 1.1x    
frame=  866 fps= 29 q=28.0 size=N/A time=00:00:33.08 bitrate=N/A speed= 1.1x    
frame=  879 fps= 29 q=28.0 size=N/A time=00:00:33.60 bitrate=N/A speed= 1.1x    
frame=  900 fps= 29 q=28.0 size=N/A time=00:00:34.44 bitrate=N/A speed=1.11x    
[hls @ 0xaaaad5244fd0] Opening '/cache/transcodes/1a9e21255d217d232cb0ee77bf70bdf111.mp4' for writing
frame=  913 fps= 29 q=28.0 size=N/A time=00:00:34.96 bitrate=N/A speed=1.11x    
frame=  923 fps= 29 q=28.0 size=N/A time=00:00:35.36 bitrate=N/A speed= 1.1x    
frame=  939 fps= 29 q=28.0 size=N/A time=00:00:36.00 bitrate=N/A speed= 1.1x    
frame=  949 fps= 29 q=28.0 size=N/A time=00:00:36.40 bitrate=N/A speed= 1.1x    
frame=  961 fps= 29 q=28.0 size=N/A time=00:00:36.88 bitrate=N/A speed= 1.1x    
frame=  970 fps= 28 q=28.0 size=N/A time=00:00:37.24 bitrate=N/A speed=1.09x    
[hls @ 0xaaaad5244fd0] Opening '/cache/transcodes/1a9e21255d217d232cb0ee77bf70bdf112.mp4' for writing
frame=  984 fps= 28 q=28.0 size=N/A time=00:00:37.80 bitrate=N/A speed=1.09x    
frame=  996 fps= 28 q=28.0 size=N/A time=00:00:38.28 bitrate=N/A speed=1.09x    
frame= 1015 fps= 28 q=28.0 size=N/A time=00:00:39.04 bitrate=N/A speed= 1.1x    
frame= 1042 fps= 28 q=28.0 size=N/A time=00:00:40.12 bitrate=N/A speed= 1.1x    
[hls @ 0xaaaad5244fd0] Opening '/cache/transcodes/1a9e21255d217d232cb0ee77bf70bdf113.mp4' for writing
frame= 1078 fps= 29 q=28.0 size=N/A time=00:00:41.56 bitrate=N/A speed=1.12x    
frame= 1110 fps= 29 q=28.0 size=N/A time=00:00:42.84 bitrate=N/A speed=1.14x    
[hls @ 0xaaaad5244fd0] Opening '/cache/transcodes/1a9e21255d217d232cb0ee77bf70bdf114.mp4' for writing
frame= 1126 fps= 30 q=28.0 size=N/A time=00:00:43.48 bitrate=N/A speed=1.14x    
frame= 1135 fps= 29 q=28.0 size=N/A time=00:00:43.84 bitrate=N/A speed=1.13x    
frame= 1148 fps= 29 q=28.0 size=N/A time=00:00:44.36 bitrate=N/A speed=1.13x    
frame= 1162 fps= 29 q=28.0 size=N/A time=00:00:44.92 bitrate=N/A speed=1.13x    
frame= 1176 fps= 29 q=28.0 size=N/A time=00:00:45.48 bitrate=N/A speed=1.13x    
frame= 1188 fps= 29 q=28.0 size=N/A time=00:00:46.00 bitrate=N/A speed=1.13x    
[hls @ 0xaaaad5244fd0] Opening '/cache/transcodes/1a9e21255d217d232cb0ee77bf70bdf115.mp4' for writing
frame= 1201 fps= 29 q=28.0 size=N/A time=00:00:46.56 bitrate=N/A speed=1.13x    
frame= 1221 fps= 29 q=28.0 size=N/A time=00:00:47.28 bitrate=N/A speed=1.14x    
frame= 1244 fps= 30 q=28.0 size=N/A time=00:00:48.20 bitrate=N/A speed=1.14x    
frame= 1259 fps= 30 q=28.0 size=N/A time=00:00:48.80 bitrate=N/A speed=1.14x    
frame= 1266 fps= 29 q=28.0 size=N/A time=00:00:49.08 bitrate=N/A speed=1.14x    
[hls @ 0xaaaad5244fd0] Opening '/cache/transcodes/1a9e21255d217d232cb0ee77bf70bdf116.mp4' for writing
frame= 1276 fps= 29 q=28.0 size=N/A time=00:00:49.56 bitrate=N/A speed=1.14x    
frame= 1291 fps= 29 q=28.0 size=N/A time=00:00:50.08 bitrate=N/A speed=1.13x    
frame= 1302 fps= 29 q=28.0 size=N/A time=00:00:50.52 bitrate=N/A speed=1.13x    
frame= 1323 fps= 29 q=28.0 size=N/A time=00:00:51.36 bitrate=N/A speed=1.14x    
frame= 1336 fps= 29 q=28.0 size=N/A time=00:00:51.88 bitrate=N/A speed=1.14x    
frame= 1350 fps= 29 q=28.0 size=N/A time=00:00:52.44 bitrate=N/A speed=1.14x    
[hls @ 0xaaaad5244fd0] Opening '/cache/transcodes/1a9e21255d217d232cb0ee77bf70bdf117.mp4' for writing
frame= 1360 fps= 29 q=28.0 size=N/A time=00:00:52.84 bitrate=N/A speed=1.13x    
frame= 1377 fps= 29 q=28.0 size=N/A time=00:00:53.52 bitrate=N/A speed=1.13x    
frame= 1391 fps= 29 q=28.0 size=N/A time=00:00:54.08 bitrate=N/A speed=1.13x    
frame= 1404 fps= 29 q=28.0 size=N/A time=00:00:54.60 bitrate=N/A speed=1.13x    
frame= 1419 fps= 29 q=28.0 size=N/A time=00:00:55.20 bitrate=N/A speed=1.13x    
frame= 1421 fps= 29 q=25.0 size=N/A time=00:00:55.28 bitrate=N/A speed=1.12x    
[hls @ 0xaaaad5244fd0] Opening '/cache/transcodes/1a9e21255d217d232cb0ee77bf70bdf118.mp4' for writing
frame= 1439 fps= 29 q=28.0 size=N/A time=00:00:56.00 bitrate=N/A speed=1.13x    
frame= 1453 fps= 29 q=28.0 size=N/A time=00:00:56.56 bitrate=N/A speed=1.13x    
frame= 1465 fps= 29 q=28.0 size=N/A time=00:00:57.04 bitrate=N/A speed=1.13x    
frame= 1481 fps= 29 q=28.0 size=N/A time=00:00:57.68 bitrate=N/A speed=1.13x    
frame= 1492 fps= 29 q=28.0 size=N/A time=00:00:58.12 bitrate=N/A speed=1.13x    
[hls @ 0xaaaad5244fd0] Opening '/cache/transcodes/1a9e21255d217d232cb0ee77bf70bdf119.mp4' for writing
frame= 1501 fps= 29 q=28.0 size=N/A time=00:00:58.52 bitrate=N/A speed=1.12x    
frame= 1505 fps= 29 q=28.0 size=N/A time=00:00:58.64 bitrate=N/A speed=1.11x    
frame= 1512 fps= 28 q=28.0 size=N/A time=00:00:58.92 bitrate=N/A speed=1.11x    
frame= 1519 fps= 28 q=28.0 size=N/A time=00:00:59.20 bitrate=N/A speed= 1.1x    
frame= 1530 fps= 28 q=28.0 size=N/A time=00:00:59.64 bitrate=N/A speed= 1.1x    
frame= 1541 fps= 28 q=28.0 size=N/A time=00:01:00.08 bitrate=N/A speed= 1.1x    
frame= 1553 fps= 28 q=28.0 size=N/A time=00:01:00.56 bitrate=N/A speed= 1.1x    
frame= 1567 fps= 28 q=28.0 size=N/A time=00:01:01.12 bitrate=N/A speed= 1.1x    
[hls @ 0xaaaad5244fd0] Opening '/cache/transcodes/1a9e21255d217d232cb0ee77bf70bdf120.mp4' for writing
frame= 1576 fps= 28 q=28.0 size=N/A time=00:01:01.56 bitrate=N/A speed= 1.1x    
frame= 1585 fps= 28 q=28.0 size=N/A time=00:01:01.84 bitrate=N/A speed=1.09x    
frame= 1599 fps= 28 q=28.0 size=N/A time=00:01:02.40 bitrate=N/A speed=1.09x    
frame= 1606 fps= 28 q=28.0 size=N/A time=00:01:02.68 bitrate=N/A speed=1.09x    
frame= 1610 fps= 28 q=28.0 size=N/A time=00:01:02.84 bitrate=N/A speed=1.08x    
frame= 1623 fps= 28 q=28.0 size=N/A time=00:01:03.36 bitrate=N/A speed=1.08x    
frame= 1633 fps= 28 q=28.0 size=N/A time=00:01:03.76 bitrate=N/A speed=1.08x    
frame= 1645 fps= 28 q=28.0 size=N/A time=00:01:04.24 bitrate=N/A speed=1.08x    
[hls @ 0xaaaad5244fd0] Opening '/cache/transcodes/1a9e21255d217d232cb0ee77bf70bdf121.mp4' for writing
frame= 1660 fps= 28 q=28.0 size=N/A time=00:01:04.84 bitrate=N/A speed=1.08x    
frame= 1673 fps= 28 q=28.0 size=N/A time=00:01:05.36 bitrate=N/A speed=1.08x    
frame= 1684 fps= 28 q=28.0 size=N/A time=00:01:05.80 bitrate=N/A speed=1.08x    
frame= 1699 fps= 28 q=28.0 size=N/A time=00:01:06.40 bitrate=N/A speed=1.08x    
frame= 1709 fps= 27 q=28.0 size=N/A time=00:01:06.80 bitrate=N/A speed=1.07x    
frame= 1717 fps= 27 q=28.0 size=N/A time=00:01:07.12 bitrate=N/A speed=1.07x    
[hls @ 0xaaaad5244fd0] Opening '/cache/transcodes/1a9e21255d217d232cb0ee77bf70bdf122.mp4' for writing
frame= 1726 fps= 27 q=28.0 size=N/A time=00:01:07.52 bitrate=N/A speed=1.07x    
frame= 1736 fps= 27 q=28.0 size=N/A time=00:01:07.88 bitrate=N/A speed=1.07x    
frame= 1751 fps= 27 q=28.0 size=N/A time=00:01:08.48 bitrate=N/A speed=1.07x    
frame= 1765 fps= 27 q=28.0 size=N/A time=00:01:09.04 bitrate=N/A speed=1.07x    
frame= 1777 fps= 27 q=28.0 size=N/A time=00:01:09.52 bitrate=N/A speed=1.07x    
frame= 1790 fps= 27 q=28.0 size=N/A time=00:01:10.04 bitrate=N/A speed=1.07x    
[hls @ 0xaaaad5244fd0] Opening '/cache/transcodes/1a9e21255d217d232cb0ee77bf70bdf123.mp4' for writing
frame= 1801 fps= 27 q=28.0 size=N/A time=00:01:10.52 bitrate=N/A speed=1.07x    
frame= 1814 fps= 27 q=28.0 size=N/A time=00:01:11.00 bitrate=N/A speed=1.06x    
frame= 1827 fps= 27 q=28.0 size=N/A time=00:01:11.52 bitrate=N/A speed=1.06x    
frame= 1836 fps= 27 q=28.0 size=N/A time=00:01:11.88 bitrate=N/A speed=1.06x    
frame= 1844 fps= 27 q=28.0 size=N/A time=00:01:12.20 bitrate=N/A speed=1.06x    
frame= 1854 fps= 27 q=28.0 size=N/A time=00:01:12.60 bitrate=N/A speed=1.06x    
frame= 1866 fps= 27 q=28.0 size=N/A time=00:01:13.08 bitrate=N/A speed=1.06x    
[hls @ 0xaaaad5244fd0] Opening '/cache/transcodes/1a9e21255d217d232cb0ee77bf70bdf124.mp4' for writing
frame= 1876 fps= 27 q=28.0 size=N/A time=00:01:13.56 bitrate=N/A speed=1.06x    
frame= 1886 fps= 27 q=28.0 size=N/A time=00:01:13.88 bitrate=N/A speed=1.05x    
frame= 1894 fps= 27 q=28.0 size=N/A time=00:01:14.20 bitrate=N/A speed=1.05x    
frame= 1906 fps= 27 q=28.0 size=N/A time=00:01:14.68 bitrate=N/A speed=1.05x    
frame= 1918 fps= 27 q=28.0 size=N/A time=00:01:15.16 bitrate=N/A speed=1.05x    
frame= 1930 fps= 27 q=28.0 size=N/A time=00:01:15.64 bitrate=N/A speed=1.05x    
frame= 1940 fps= 27 q=28.0 size=N/A time=00:01:16.04 bitrate=N/A speed=1.05x    
frame= 1948 fps= 27 q=28.0 size=N/A time=00:01:16.36 bitrate=N/A speed=1.04x    
[hls @ 0xaaaad5244fd0] Opening '/cache/transcodes/1a9e21255d217d232cb0ee77bf70bdf125.mp4' for writing
frame= 1960 fps= 27 q=28.0 size=N/A time=00:01:16.84 bitrate=N/A speed=1.04x    
frame= 1971 fps= 27 q=28.0 size=N/A time=00:01:17.28 bitrate=N/A speed=1.04x    
frame= 1979 fps= 26 q=28.0 size=N/A time=00:01:17.60 bitrate=N/A speed=1.04x    
frame= 1990 fps= 26 q=28.0 size=N/A time=00:01:18.04 bitrate=N/A speed=1.04x    
frame= 1999 fps= 26 q=28.0 size=N/A time=00:01:18.40 bitrate=N/A speed=1.04x    
frame= 2009 fps= 26 q=28.0 size=N/A time=00:01:18.80 bitrate=N/A speed=1.03x    
[hls @ 0xaaaad5244fd0] Opening '/cache/transcodes/1a9e21255d217d232cb0ee77bf70bdf126.mp4' for writing
frame= 2026 fps= 26 q=28.0 size=N/A time=00:01:19.60 bitrate=N/A speed=1.04x    
frame= 2043 fps= 26 q=28.0 size=N/A time=00:01:20.16 bitrate=N/A speed=1.04x    
frame= 2076 fps= 27 q=28.0 size=N/A time=00:01:21.48 bitrate=N/A speed=1.05x    
frame= 2093 fps= 27 q=28.0 size=N/A time=00:01:22.16 bitrate=N/A speed=1.05x    
[hls @ 0xaaaad5244fd0] Opening '/cache/transcodes/1a9e21255d217d232cb0ee77bf70bdf127.mp4' for writing
frame= 2106 fps= 27 q=28.0 size=N/A time=00:01:22.68 bitrate=N/A speed=1.05x    
frame= 2124 fps= 27 q=28.0 size=N/A time=00:01:23.40 bitrate=N/A speed=1.05x    
frame= 2150 fps= 27 q=28.0 size=N/A time=00:01:24.44 bitrate=N/A speed=1.06x    
[hls @ 0xaaaad5244fd0] Opening '/cache/transcodes/1a9e21255d217d232cb0ee77bf70bdf128.mp4' for writing
frame= 2176 fps= 27 q=28.0 size=N/A time=00:01:25.52 bitrate=N/A speed=1.07x    
frame= 2200 fps= 27 q=28.0 size=N/A time=00:01:26.44 bitrate=N/A speed=1.07x    
frame= 2224 fps= 27 q=28.0 size=N/A time=00:01:27.40 bitrate=N/A speed=1.08x    
frame= 2242 fps= 27 q=28.0 size=N/A time=00:01:28.12 bitrate=N/A speed=1.08x    
[hls @ 0xaaaad5244fd0] Opening '/cache/transcodes/1a9e21255d217d232cb0ee77bf70bdf129.mp4' for writing
frame= 2256 fps= 27 q=28.0 size=N/A time=00:01:28.68 bitrate=N/A speed=1.08x    
frame= 2271 fps= 27 q=28.0 size=N/A time=00:01:29.28 bitrate=N/A speed=1.08x    
frame= 2286 fps= 27 q=28.0 size=N/A time=00:01:29.88 bitrate=N/A speed=1.08x    
frame= 2298 fps= 27 q=28.0 size=N/A time=00:01:30.36 bitrate=N/A speed=1.08x    
frame= 2309 fps= 27 q=28.0 size=N/A time=00:01:30.80 bitrate=N/A speed=1.08x    
frame= 2320 fps= 27 q=28.0 size=N/A time=00:01:31.24 bitrate=N/A speed=1.08x    
[hls @ 0xaaaad5244fd0] Opening '/cache/transcodes/1a9e21255d217d232cb0ee77bf70bdf130.mp4' for writing
frame= 2335 fps= 27 q=28.0 size=N/A time=00:01:31.84 bitrate=N/A speed=1.08x    
frame= 2349 fps= 27 q=28.0 size=N/A time=00:01:32.40 bitrate=N/A speed=1.08x    
frame= 2357 fps= 27 q=28.0 size=N/A time=00:01:32.72 bitrate=N/A speed=1.07x    
frame= 2372 fps= 27 q=28.0 size=N/A time=00:01:33.32 bitrate=N/A speed=1.08x    
frame= 2387 fps= 27 q=28.0 size=N/A time=00:01:33.92 bitrate=N/A speed=1.08x    
[hls @ 0xaaaad5244fd0] Opening '/cache/transcodes/1a9e21255d217d232cb0ee77bf70bdf131.mp4' for writing
frame= 2401 fps= 27 q=28.0 size=N/A time=00:01:34.48 bitrate=N/A speed=1.08x    
frame= 2412 fps= 27 q=28.0 size=N/A time=00:01:34.92 bitrate=N/A speed=1.07x    
frame= 2424 fps= 27 q=28.0 size=N/A time=00:01:35.40 bitrate=N/A speed=1.07x    
frame= 2438 fps= 27 q=28.0 size=N/A time=00:01:35.96 bitrate=N/A speed=1.07x    
frame= 2455 fps= 27 q=28.0 size=N/A time=00:01:36.64 bitrate=N/A speed=1.08x    
frame= 2466 fps= 27 q=28.0 size=N/A time=00:01:37.08 bitrate=N/A speed=1.07x    
[hls @ 0xaaaad5244fd0] Opening '/cache/transcodes/1a9e21255d217d232cb0ee77bf70bdf132.mp4' for writing
frame= 2476 fps= 27 q=28.0 size=N/A time=00:01:37.48 bitrate=N/A speed=1.07x    
frame= 2490 fps= 27 q=28.0 size=N/A time=00:01:38.04 bitrate=N/A speed=1.07x    
frame= 2505 fps= 27 q=28.0 size=N/A time=00:01:38.64 bitrate=N/A speed=1.07x    
frame= 2513 fps= 27 q=28.0 size=N/A time=00:01:38.96 bitrate=N/A speed=1.07x    
frame= 2520 fps= 27 q=28.0 size=N/A time=00:01:39.24 bitrate=N/A speed=1.07x    
frame= 2534 fps= 27 q=28.0 size=N/A time=00:01:39.80 bitrate=N/A speed=1.07x    
frame= 2544 fps= 27 q=28.0 size=N/A time=00:01:40.20 bitrate=N/A speed=1.07x    
[hls @ 0xaaaad5244fd0] Opening '/cache/transcodes/1a9e21255d217d232cb0ee77bf70bdf133.mp4' for writing
frame= 2551 fps= 27 q=28.0 size=N/A time=00:01:40.56 bitrate=N/A speed=1.07x    
frame= 2563 fps= 27 q=28.0 size=N/A time=00:01:40.96 bitrate=N/A speed=1.06x    
frame= 2571 fps= 27 q=28.0 size=N/A time=00:01:41.28 bitrate=N/A speed=1.06x    
frame= 2583 fps= 27 q=28.0 size=N/A time=00:01:41.76 bitrate=N/A speed=1.06x    
frame= 2596 fps= 27 q=28.0 size=N/A time=00:01:42.28 bitrate=N/A speed=1.06x    
frame= 2610 fps= 27 q=28.0 size=N/A time=00:01:42.84 bitrate=N/A speed=1.06x    
frame= 2619 fps= 27 q=28.0 size=N/A time=00:01:43.20 bitrate=N/A speed=1.06x    
[hls @ 0xaaaad5244fd0] Opening '/cache/transcodes/1a9e21255d217d232cb0ee77bf70bdf134.mp4' for writing
frame= 2626 fps= 27 q=28.0 size=N/A time=00:01:43.56 bitrate=N/A speed=1.06x    
frame= 2643 fps= 27 q=28.0 size=N/A time=00:01:44.16 bitrate=N/A speed=1.06x    
frame= 2651 fps= 27 q=28.0 size=N/A time=00:01:44.48 bitrate=N/A speed=1.06x    
frame= 2663 fps= 27 q=28.0 size=N/A time=00:01:44.96 bitrate=N/A speed=1.06x    
frame= 2672 fps= 27 q=28.0 size=N/A time=00:01:45.32 bitrate=N/A speed=1.05x    
frame= 2684 fps= 27 q=28.0 size=N/A time=00:01:45.80 bitrate=N/A speed=1.05x    
frame= 2700 fps= 27 q=28.0 size=N/A time=00:01:46.44 bitrate=N/A speed=1.06x    
[hls @ 0xaaaad5244fd0] Opening '/cache/transcodes/1a9e21255d217d232cb0ee77bf70bdf135.mp4' for writing
frame= 2714 fps= 27 q=28.0 size=N/A time=00:01:47.00 bitrate=N/A speed=1.06x    
frame= 2726 fps= 27 q=28.0 size=N/A time=00:01:47.48 bitrate=N/A speed=1.06x    
frame= 2742 fps= 27 q=28.0 size=N/A time=00:01:48.12 bitrate=N/A speed=1.06x    
frame= 2756 fps= 27 q=28.0 size=N/A time=00:01:48.68 bitrate=N/A speed=1.06x    
frame= 2771 fps= 27 q=25.0 size=N/A time=00:01:49.28 bitrate=N/A speed=1.06x    
[hls @ 0xaaaad5244fd0] Opening '/cache/transcodes/1a9e21255d217d232cb0ee77bf70bdf136.mp4' for writing
frame= 2789 fps= 27 q=28.0 size=N/A time=00:01:50.00 bitrate=N/A speed=1.06x    
frame= 2806 fps= 27 q=28.0 size=N/A time=00:01:50.68 bitrate=N/A speed=1.06x    
frame= 2822 fps= 27 q=28.0 size=N/A time=00:01:51.32 bitrate=N/A speed=1.06x    
frame= 2836 fps= 27 q=28.0 size=N/A time=00:01:51.88 bitrate=N/A speed=1.06x    
[hls @ 0xaaaad5244fd0] Opening '/cache/transcodes/1a9e21255d217d232cb0ee77bf70bdf137.mp4' for writing
frame= 2851 fps= 27 q=28.0 size=N/A time=00:01:52.52 bitrate=N/A speed=1.06x    
frame= 2862 fps= 27 q=28.0 size=N/A time=00:01:52.92 bitrate=N/A speed=1.06x    
frame= 2869 fps= 27 q=28.0 size=N/A time=00:01:53.20 bitrate=N/A speed=1.06x    
frame= 2880 fps= 27 q=28.0 size=N/A time=00:01:53.64 bitrate=N/A speed=1.06x    
frame= 2897 fps= 27 q=28.0 size=N/A time=00:01:54.32 bitrate=N/A speed=1.06x    
frame= 2916 fps= 27 q=28.0 size=N/A time=00:01:55.08 bitrate=N/A speed=1.06x    
[hls @ 0xaaaad5244fd0] Opening '/cache/transcodes/1a9e21255d217d232cb0ee77bf70bdf138.mp4' for writing
frame= 2941 fps= 27 q=28.0 size=N/A time=00:01:56.08 bitrate=N/A speed=1.07x    
frame= 2965 fps= 27 q=28.0 size=N/A time=00:01:57.04 bitrate=N/A speed=1.07x    
frame= 2982 fps= 27 q=28.0 size=N/A time=00:01:57.72 bitrate=N/A speed=1.07x    
[hls @ 0xaaaad5244fd0] Opening '/cache/transcodes/1a9e21255d217d232cb0ee77bf70bdf139.mp4' for writing
frame= 3011 fps= 27 q=28.0 size=N/A time=00:01:58.88 bitrate=N/A speed=1.08x    
frame= 3036 fps= 27 q=28.0 size=N/A time=00:01:59.88 bitrate=N/A speed=1.08x    
frame= 3060 fps= 27 q=28.0 size=N/A time=00:02:00.84 bitrate=N/A speed=1.09x    
[hls @ 0xaaaad5244fd0] Opening '/cache/transcodes/1a9e21255d217d232cb0ee77bf70bdf140.mp4' for writing
frame= 3088 fps= 28 q=28.0 size=N/A time=00:02:01.96 bitrate=N/A speed=1.09x    
frame= 3119 fps= 28 q=28.0 size=N/A time=00:02:03.20 bitrate=N/A speed= 1.1x    
frame= 3150 fps= 28 q=28.0 size=N/A time=00:02:04.44 bitrate=N/A speed= 1.1x    
[hls @ 0xaaaad5244fd0] Opening '/cache/transcodes/1a9e21255d217d232cb0ee77bf70bdf141.mp4' for writing
frame= 3167 fps= 28 q=28.0 size=N/A time=00:02:05.12 bitrate=N/A speed= 1.1x    
frame= 3190 fps= 28 q=28.0 size=N/A time=00:02:06.04 bitrate=N/A speed=1.11x    
frame= 3225 fps= 28 q=28.0 size=N/A time=00:02:07.44 bitrate=N/A speed=1.11x    
[hls @ 0xaaaad5244fd0] Opening '/cache/transcodes/1a9e21255d217d232cb0ee77bf70bdf142.mp4' for writing
frame= 3242 fps= 28 q=28.0 size=N/A time=00:02:08.12 bitrate=N/A speed=1.12x    
frame= 3257 fps= 28 q=28.0 size=N/A time=00:02:08.72 bitrate=N/A speed=1.12x    
frame= 3274 fps= 28 q=28.0 size=N/A time=00:02:09.48 bitrate=N/A speed=1.12x    
frame= 3294 fps= 28 q=28.0 size=N/A time=00:02:10.20 bitrate=N/A speed=1.12x    
[hls @ 0xaaaad5244fd0] Opening '/cache/transcodes/1a9e21255d217d232cb0ee77bf70bdf143.mp4' for writing
frame= 3309 fps= 28 q=28.0 size=N/A time=00:02:10.80 bitrate=N/A speed=1.12x    
frame= 3332 fps= 28 q=28.0 size=N/A time=00:02:11.72 bitrate=N/A speed=1.12x    
frame= 3344 fps= 28 q=28.0 size=N/A time=00:02:12.20 bitrate=N/A speed=1.12x    
frame= 3352 fps= 28 q=28.0 size=N/A time=00:02:12.52 bitrate=N/A speed=1.12x    
frame= 3369 fps= 28 q=28.0 size=N/A time=00:02:13.20 bitrate=N/A speed=1.12x    
[hls @ 0xaaaad5244fd0] Opening '/cache/transcodes/1a9e21255d217d232cb0ee77bf70bdf144.mp4' for writing
frame= 3383 fps= 28 q=28.0 size=N/A time=00:02:13.76 bitrate=N/A speed=1.12x    
frame= 3395 fps= 28 q=28.0 size=N/A time=00:02:14.24 bitrate=N/A speed=1.12x    
frame= 3408 fps= 28 q=28.0 size=N/A time=00:02:14.76 bitrate=N/A speed=1.12x    
frame= 3423 fps= 28 q=28.0 size=N/A time=00:02:15.36 bitrate=N/A speed=1.12x    
frame= 3437 fps= 28 q=28.0 size=N/A time=00:02:15.92 bitrate=N/A speed=1.12x    
[hls @ 0xaaaad5244fd0] Opening '/cache/transcodes/1a9e21255d217d232cb0ee77bf70bdf145.mp4' for writing
frame= 3451 fps= 28 q=28.0 size=N/A time=00:02:16.52 bitrate=N/A speed=1.12x    
frame= 3461 fps= 28 q=28.0 size=N/A time=00:02:16.88 bitrate=N/A speed=1.12x    
frame= 3481 fps= 28 q=28.0 size=N/A time=00:02:17.68 bitrate=N/A speed=1.12x    
frame= 3513 fps= 28 q=28.0 size=N/A time=00:02:18.96 bitrate=N/A speed=1.13x    
[hls @ 0xaaaad5244fd0] Opening '/cache/transcodes/1a9e21255d217d232cb0ee77bf70bdf146.mp4' for writing
frame= 3540 fps= 29 q=28.0 size=N/A time=00:02:20.04 bitrate=N/A speed=1.13x    
frame= 3565 fps= 29 q=28.0 size=N/A time=00:02:21.04 bitrate=N/A speed=1.13x    
frame= 3597 fps= 29 q=28.0 size=N/A time=00:02:22.32 bitrate=N/A speed=1.14x    
[hls @ 0xaaaad5244fd0] Opening '/cache/transcodes/1a9e21255d217d232cb0ee77bf70bdf147.mp4' for writing
frame= 3622 fps= 29 q=28.0 size=N/A time=00:02:23.32 bitrate=N/A speed=1.14x    
frame= 3648 fps= 29 q=28.0 size=N/A time=00:02:24.36 bitrate=N/A speed=1.15x    
[hls @ 0xaaaad5244fd0] Opening '/cache/transcodes/1a9e21255d217d232cb0ee77bf70bdf148.mp4' for writing
frame= 3676 fps= 29 q=28.0 size=N/A time=00:02:25.52 bitrate=N/A speed=1.15x    
frame= 3697 fps= 29 q=28.0 size=N/A time=00:02:26.32 bitrate=N/A speed=1.15x    
frame= 3721 fps= 29 q=28.0 size=N/A time=00:02:27.28 bitrate=N/A speed=1.16x    
[hls @ 0xaaaad5244fd0] Opening '/cache/transcodes/1a9e21255d217d232cb0ee77bf70bdf149.mp4' for writing
frame= 3751 fps= 29 q=28.0 size=N/A time=00:02:28.52 bitrate=N/A speed=1.16x    
frame= 3780 fps= 29 q=28.0 size=N/A time=00:02:29.64 bitrate=N/A speed=1.17x    
frame= 3806 fps= 30 q=28.0 size=N/A time=00:02:30.68 bitrate=N/A speed=1.17x    
[hls @ 0xaaaad5244fd0] Opening '/cache/transcodes/1a9e21255d217d232cb0ee77bf70bdf150.mp4' for writing
frame= 3834 fps= 30 q=28.0 size=N/A time=00:02:31.80 bitrate=N/A speed=1.17x    
frame= 3863 fps= 30 q=28.0 size=N/A time=00:02:32.96 bitrate=N/A speed=1.18x    
frame= 3889 fps= 30 q=28.0 size=N/A time=00:02:34.00 bitrate=N/A speed=1.18x    
frame= 3900 fps= 30 q=28.0 size=N/A time=00:02:34.44 bitrate=N/A speed=1.18x    
[hls @ 0xaaaad5244fd0] Opening '/cache/transcodes/1a9e21255d217d232cb0ee77bf70bdf151.mp4' for writing
frame= 3912 fps= 30 q=28.0 size=N/A time=00:02:34.92 bitrate=N/A speed=1.18x    
frame= 3928 fps= 30 q=28.0 size=N/A time=00:02:35.56 bitrate=N/A speed=1.18x    
frame= 3940 fps= 30 q=28.0 size=N/A time=00:02:36.04 bitrate=N/A speed=1.18x    
frame= 3952 fps= 30 q=28.0 size=N/A time=00:02:36.52 bitrate=N/A speed=1.18x    
frame= 3965 fps= 30 q=28.0 size=N/A time=00:02:37.04 bitrate=N/A speed=1.18x    
[hls @ 0xaaaad5244fd0] Opening '/cache/transcodes/1a9e21255d217d232cb0ee77bf70bdf152.mp4' for writing
frame= 3976 fps= 30 q=28.0 size=N/A time=00:02:37.52 bitrate=N/A speed=1.18x    
frame= 3992 fps= 30 q=28.0 size=N/A time=00:02:38.12 bitrate=N/A speed=1.18x    
frame= 4011 fps= 30 q=28.0 size=N/A time=00:02:38.88 bitrate=N/A speed=1.18x    
frame= 4025 fps= 30 q=28.0 size=N/A time=00:02:39.44 bitrate=N/A speed=1.18x    
frame= 4035 fps= 30 q=28.0 size=N/A time=00:02:39.84 bitrate=N/A speed=1.18x    
frame= 4048 fps= 30 q=28.0 size=N/A time=00:02:40.36 bitrate=N/A speed=1.18x    
[hls @ 0xaaaad5244fd0] Opening '/cache/transcodes/1a9e21255d217d232cb0ee77bf70bdf153.mp4' for writing
frame= 4063 fps= 30 q=28.0 size=N/A time=00:02:40.96 bitrate=N/A speed=1.18x    
frame= 4081 fps= 30 q=28.0 size=N/A time=00:02:41.68 bitrate=N/A speed=1.18x    
frame= 4098 fps= 30 q=28.0 size=N/A time=00:02:42.36 bitrate=N/A speed=1.18x    
frame= 4102 fps= 30 q=28.0 size=N/A time=00:02:42.52 bitrate=N/A speed=1.17x    
frame= 4108 fps= 30 q=28.0 size=N/A time=00:02:42.76 bitrate=N/A speed=1.17x    
frame= 4119 fps= 30 q=28.0 size=N/A time=00:02:43.20 bitrate=N/A speed=1.17x    
[hls @ 0xaaaad5244fd0] Opening '/cache/transcodes/1a9e21255d217d232cb0ee77bf70bdf154.mp4' for writing
frame= 4126 fps= 29 q=28.0 size=N/A time=00:02:43.56 bitrate=N/A speed=1.17x    
frame= 4139 fps= 29 q=28.0 size=N/A time=00:02:44.00 bitrate=N/A speed=1.17x    
frame= 4145 fps= 29 q=28.0 size=N/A time=00:02:44.24 bitrate=N/A speed=1.17x    
frame= 4154 fps= 29 q=28.0 size=N/A time=00:02:44.60 bitrate=N/A speed=1.16x    
frame= 4168 fps= 29 q=28.0 size=N/A time=00:02:45.16 bitrate=N/A speed=1.16x    
frame= 4181 fps= 29 q=28.0 size=N/A time=00:02:45.68 bitrate=N/A speed=1.16x    
frame= 4196 fps= 29 q=25.0 size=N/A time=00:02:46.28 bitrate=N/A speed=1.16x    
[hls @ 0xaaaad5244fd0] Opening '/cache/transcodes/1a9e21255d217d232cb0ee77bf70bdf155.mp4' for writing
frame= 4208 fps= 29 q=28.0 size=N/A time=00:02:46.76 bitrate=N/A speed=1.16x    
frame= 4222 fps= 29 q=28.0 size=N/A time=00:02:47.32 bitrate=N/A speed=1.16x    
frame= 4228 fps= 29 q=28.0 size=N/A time=00:02:47.56 bitrate=N/A speed=1.16x    
frame= 4243 fps= 29 q=28.0 size=N/A time=00:02:48.16 bitrate=N/A speed=1.16x    
frame= 4255 fps= 29 q=28.0 size=N/A time=00:02:48.64 bitrate=N/A speed=1.16x    

[q] command received. Exiting.

[hls @ 0xaaaad5244fd0] Opening '/cache/transcodes/1a9e21255d217d232cb0ee77bf70bdf156.mp4' for writing
[hls @ 0xaaaad5244fd0] Opening '/cache/transcodes/1a9e21255d217d232cb0ee77bf70bdf157.mp4' for writing
[out#0/hls @ 0xaaaad52142a0] video:52372KiB audio:2694KiB subtitle:0KiB other streams:0KiB global headers:0KiB muxing overhead: unknown
frame= 4297 fps= 29 q=-1.0 Lsize=N/A time=00:02:50.32 bitrate=N/A speed=1.16x    
[libx264 @ 0xaaaad521bc50] frame I:58    Avg QP:14.36  size: 42571
[libx264 @ 0xaaaad521bc50] frame P:1203  Avg QP:18.78  size: 19486
[libx264 @ 0xaaaad521bc50] frame B:3036  Avg QP:21.35  size:  9130
[libx264 @ 0xaaaad521bc50] consecutive B-frames:  3.2%  4.9%  8.8% 83.1%
[libx264 @ 0xaaaad521bc50] mb I  I16..4: 50.5% 36.8% 12.7%
[libx264 @ 0xaaaad521bc50] mb P  I16..4: 14.4% 24.2%  1.7%  P16..4:  8.6%  3.6%  1.2%  0.0%  0.0%    skip:46.3%
[libx264 @ 0xaaaad521bc50] mb B  I16..4:  3.9%  6.4%  0.2%  B16..8: 12.0%  3.6%  0.3%  direct: 4.0%  skip:69.5%  L0:51.3% L1:42.2% BI: 6.6%
[libx264 @ 0xaaaad521bc50] 8x8 transform intra:58.7% inter:59.1%
[libx264 @ 0xaaaad521bc50] coded y,uvDC,uvAC intra: 31.5% 33.9% 0.9% inter: 2.1% 8.3% 0.0%
[libx264 @ 0xaaaad521bc50] i16 v,h,dc,p: 43% 19% 13% 25%
[libx264 @ 0xaaaad521bc50] i8 v,h,dc,ddl,ddr,vr,hd,vl,hu: 20% 15% 27%  5%  7%  7%  6%  6%  7%
[libx264 @ 0xaaaad521bc50] i4 v,h,dc,ddl,ddr,vr,hd,vl,hu: 34% 21% 17%  3%  6%  5%  4%  5%  5%
[libx264 @ 0xaaaad521bc50] i8c dc,h,v,p: 44% 24% 25%  7%
[libx264 @ 0xaaaad521bc50] Weighted P-Frames: Y:2.4% UV:0.3%
[libx264 @ 0xaaaad521bc50] kb/s:2496.09